<?xml version="1.0" encoding="UTF-8" standalone="no"?>
<!-- Created with Inkscape (http://www.inkscape.org/) -->

<svg
   width="8.4666901mm"
   height="8.4666748mm"
   viewBox="0 0 8.4666901 8.4666748"
   version="1.1"
   id="svg5"
   xml:space="preserve"
   inkscape:version="1.2.2 (732a01da63, 2022-12-09)"
   sodipodi:docname="dessin.svg"
   xmlns:inkscape="http://www.inkscape.org/namespaces/inkscape"
   xmlns:sodipodi="http://sodipodi.sourceforge.net/DTD/sodipodi-0.dtd"
   xmlns="http://www.w3.org/2000/svg"
   xmlns:svg="http://www.w3.org/2000/svg"><sodipodi:namedview
     id="namedview7"
     pagecolor="#ffffff"
     bordercolor="#000000"
     borderopacity="0.25"
     inkscape:showpageshadow="2"
     inkscape:pageopacity="0.0"
     inkscape:pagecheckerboard="0"
     inkscape:deskcolor="#d1d1d1"
     inkscape:document-units="mm"
     showgrid="false"
     inkscape:zoom="2.8284271"
     inkscape:cx="-638.51742"
     inkscape:cy="2038.7656"
     inkscape:window-width="1920"
     inkscape:window-height="991"
     inkscape:window-x="-9"
     inkscape:window-y="-9"
     inkscape:window-maximized="1"
     inkscape:current-layer="layer1" /><defs
     id="defs2" /><g
     inkscape:label="Calque 1"
     inkscape:groupmode="layer"
     id="layer1"
     transform="translate(181.46306,-538.99699)"><path
       id="path1331-6"
       style="color:#000000;opacity:1;fill:#000000;fill-rule:evenodd;stroke-width:1.00134;-inkscape-stroke:none;paint-order:stroke fill markers"
       d="m -177.23076,538.99701 c -2.33583,0 -4.2323,1.89852 -4.2323,4.23436 0,2.33584 1.89647,4.23231 4.2323,4.23231 2.33584,0 4.23437,-1.89647 4.23437,-4.23231 0,-2.33584 -1.89853,-4.23436 -4.23437,-4.23436 z m 0,0.33841 c 2.15292,0 3.89595,1.74303 3.89595,3.89595 0,2.15293 -1.74303,3.89388 -3.89595,3.89388 -2.15292,0 -3.89388,-1.74095 -3.89388,-3.89388 0,-2.15292 1.74096,-3.89595 3.89388,-3.89595 z m 0.22975,2.02017 v 1.27554 h -2.74615 v 1.19946 h 2.74615 v 1.27554 l 2.28769,-1.87528 z" /></g></svg>
