<svg xmlns="http://www.w3.org/2000/svg" width="592" height="142" viewBox="0 0 590.7 128"><g fill-rule="nonzero" fill="none"><path d="M45.926 41.7c2.7-3.4 4.6-8 4.1-12.7-4 .2-8.9 2.6-11.7 6.1-2.5 2.9-4.8 7.7-4.2 12.2 4.5.4 8.9-2.2 11.8-5.6m4 6.5c-6.5-.4-12.1 3.7-15.2 3.7-3.1 0-7.9-3.5-13-3.4-6.7.1-13 3.9-16.4 9.9-7 12.1-1.8 30 5 39.8 3.3 4.9 7.3 10.2 12.6 10 5-.2 6.9-3.2 12.9-3.2s7.8 3.2 13 3.1c5.5-.1 8.9-4.9 12.2-9.7 3.8-5.5 5.4-10.9 5.4-11.2-.1-.1-10.5-4.1-10.6-16.1-.1-10 8.2-14.8 8.6-15.1-4.6-6.8-11.9-7.6-14.5-7.8" fill="#fff" opacity=".9" stroke="#000" stroke-width="2"/><path d="M79.626 108.7V33.6h28.4c14.7 0 25 10.3 25 25 0 14.8-10.4 25.1-25.4 25.1h-14.6v25zm25.4-36.5c9.3 0 14.5-4.8 14.5-13.5s-5.1-13.5-14.4-13.5h-12.1v27z" fill="#fff" opacity=".9"/><path d="M108.026 34.6c14.2 0 24 9.8 24 24 0 14.3-10.1 24.1-24.4 24.1h-15.6v25h-11.4V34.6h27.4m-16 38.6h13c9.9 0 15.5-5.3 15.5-14.5s-5.6-14.5-15.4-14.5h-13.1v29m16-40.6h-29.4v77.1h15.4v-25h13.7c15.5 0 26.4-10.7 26.4-26.1-.1-15.3-10.8-26-26.1-26zm-14 13.6h11c8.7 0 13.4 4.4 13.4 12.5s-4.8 12.5-13.5 12.5h-10.9z" fill="#000" opacity=".9"/><path fill="#fff" opacity=".9" d="M153.026 33.6v75.1h-12.9V33.6z"/><path d="M152.026 34.6v73.1h-10.9V34.6h10.9m2-2h-14.9v77.1h14.9z" fill="#000" opacity=".9"/><path d="M178.826 109.6c-11 0-18.7-7-18.7-17 0-9.9 7.6-16 20.7-16.7l13.6-.8v-3.2c0-5.4-3.5-8.5-9.7-8.5-5.6 0-9.4 2.5-10.3 7l-.2.8h-12.2l.1-1.1c.7-10.6 9.9-17.6 23-17.6 13.5 0 22.2 7.3 22.2 18.5v37.7h-12.5V102c-3.5 4.7-9.5 7.6-16 7.6zm3.6-24.3c-3.5.2-9.3 1.5-9.3 6.9 0 4.1 3.4 6.7 8.7 6.7 7.2 0 12.6-4.8 12.6-11.2v-3.1l-12 .7z" fill="#fff" opacity=".9"/><path d="M185.226 53.4c12.9 0 21.2 6.8 21.2 17.5v36.7h-10.5v-8.8h-.3c-3.1 5.9-9.8 9.7-16.8 9.7-10.4 0-17.7-6.5-17.7-16 0-9.3 7.1-15 19.8-15.7l14.6-.9v-4.1c0-5.9-4-9.5-10.7-9.5-6.3 0-10.3 3-11.2 7.8h-10.3c.6-9.6 8.8-16.7 21.9-16.7m-3.3 46.5c7.6 0 13.6-5.3 13.6-12.2v-4.2l-13.1.8c-6.5.5-10.2 3.3-10.2 7.9 0 4.7 3.8 7.7 9.7 7.7m3.3-48.5c-13.6 0-23.3 7.5-24 18.6l-.1 2.1h14l.3-1.6c.8-4 4.1-6.2 9.3-6.2 3.2 0 8.7 1 8.7 7.5V74l-12.7.7c-13.8.8-21.7 7.2-21.7 17.7 0 10.6 8.1 18 19.7 18 5.8 0 11.2-2.3 15.1-6v5.1h14.5V71c.1-11.9-9-19.6-23.1-19.6zm-3.3 46.5c-3.7 0-7.7-1.5-7.7-5.7 0-4.6 5.2-5.7 8.4-5.9l11-.7v2.1c-.1 5.8-5.1 10.2-11.7 10.2z" fill="#000" opacity=".9"/><path d="M250.926 108.7V75.3c0-7.6-3.5-11.4-10.3-11.4-7.1 0-11.7 5-11.7 12.7v32h-12.9V53.4h12.4v6.7c3.5-4.9 9-7.6 16-7.6 12.2 0 19.5 7.7 19.5 20.7v35.5h-13z" fill="#fff" opacity=".9"/><path d="M244.426 53.5c11.7 0 18.5 7.5 18.5 19.7v34.5h-11V75.3c0-8-3.7-12.4-11.3-12.4-7.7 0-12.7 5.5-12.7 13.7v31h-10.9V54.4h10.4v8.9h.3c2.8-6.1 8.5-9.8 16.7-9.8m0-2c-6.2 0-11.4 2-15 5.8v-4.9h-14.4v57.3h14.9v-33c0-7.2 4.1-11.7 10.7-11.7 6.4 0 9.3 3.3 9.3 10.4v34.4h15V73.2c0-13.4-7.9-21.7-20.5-21.7z" fill="#000" opacity=".9"/><g><path d="M293.426 109.7c-13.5 0-22.2-6.6-23.3-17.6l-.1-1.1h12.8l.1.8c.9 5.1 4.3 7.5 10.5 7.5 5.9 0 9.6-2.3 9.6-6.1 0-2.6-1.2-4.5-7-5.8l-8.7-2c-10.7-2.5-15.9-7.7-15.9-15.9 0-10 8.9-17 21.6-17 12.7 0 21.4 7.1 21.8 17.7v1h-12.2l-.1-.9c-.6-4.8-4-7.5-9.5-7.5-5.3 0-8.9 2.5-8.9 6.1 0 2 .8 4.5 7.4 6l8.7 2c11.2 2.6 15.8 7.1 15.8 15.5 0 10.1-9.3 17.3-22.6 17.3z" fill="#fff" opacity=".9"/><path d="M293.026 53.4c12.4 0 20.5 6.9 20.8 16.7h-10.3c-.6-5.2-4.4-8.4-10.5-8.4-5.9 0-9.9 2.9-9.9 7.1 0 3.3 2.4 5.6 8.2 6.9l8.7 2c10.9 2.5 15 6.8 15 14.5 0 9.7-9.1 16.4-21.6 16.4-13.3 0-21.3-6.5-22.3-16.7h10.8c1 5.6 4.8 8.3 11.5 8.3 6.6 0 10.6-2.7 10.6-7.1 0-3.4-2-5.5-7.8-6.8l-8.7-2c-10.1-2.3-15.1-7.2-15.1-14.9.1-9.4 8.4-16 20.6-16m0-2c-13.3 0-22.6 7.4-22.6 18 0 8.7 5.6 14.3 16.7 16.9l8.7 2c5.8 1.3 6.3 3 6.3 4.8 0 3.8-4.5 5.1-8.6 5.1-5.7 0-8.7-2.1-9.5-6.7l-.3-1.6h-14.7l.2 2.2c1.2 11.6 10.2 18.5 24.3 18.5 13.9 0 23.6-7.6 23.6-18.4 0-8.8-5-13.7-16.6-16.4l-8.7-2c-6.6-1.5-6.6-3.9-6.6-5 0-3.1 3.2-5.1 7.9-5.1 5 0 8 2.4 8.5 6.6l.2 1.8h14.2l-.1-2.1c-.5-11.1-9.6-18.6-22.9-18.6z" fill="#000" opacity=".9"/></g></g></svg>
